inDegrees=yes
name=ik_S53_A04_T01
DataType=double
version=3
OpenSimVersion=4.3-2021-08-27-4bc7ad9
endheader
time	pelvis_tilt	pelvis_list	pelvis_rotation	pelvis_tx	pelvis_ty	pelvis_tz	hip_flexion_r	hip_adduction_r	hip_rotation_r	knee_angle_r	knee_angle_r_beta	ankle_angle_r	subtalar_angle_r	mtp_angle_r	hip_flexion_l	hip_adduction_l	hip_rotation_l	knee_angle_l	knee_angle_l_beta	ankle_angle_l	subtalar_angle_l	mtp_angle_l	lumbar_extension	lumbar_bending	lumbar_rotation	arm_flex_r	arm_add_r	arm_rot_r	elbow_flex_r	pro_sup_r	wrist_flex_r	wrist_dev_r	arm_flex_l	arm_add_l	arm_rot_l	elbow_flex_l	pro_sup_l	wrist_flex_l	wrist_dev_l
0	0	0	0	0	0.9399999999999999	0	0	0	0	0	0	0	0	0	0	0	0	0	0	0	0	0	0	0	0	0	0	0	0	89.99999999963507	0	0	0	0	0	0	89.99999999869995	0	0
0.02	19.00724227075348	6.25552398757576	17.63143335207845	0	0.9399999999999999	0	43.04279952334061	-11.699658273135	6.489438584717878	74.56343629885306	1.301377465016041	0	0	0	39.32152681134006	-21.84398349718573	0.494943897787496	72.2257511151852	1.260577161685948	0	0	0	0	0	0	3.322469548438156	-3.322469548438156	0.6005022705959534	16.94905086783732	89.39949776440737	0	0	3.322469548438156	-3.322469548438156	0.6005022705959534	16.94905086783732	89.3994977635848	0	0
0.04	19.03339044899334	6.244375161421476	17.64005336166449	0	0.9399999999999999	0	43.01481329199061	-11.70078367189248	6.458937181135664	74.58880799752016	1.301820284694605	0	0	0	39.28482212671575	-21.84626239062568	0.5273041195443462	72.11261344239892	1.258602536787784	0	0	0	0	0	0	3.864522099012151	-3.864522099012151	0.7013585685288428	19.08986165143136	89.29864147242345	0	0	3.864522099012151	-3.864522099012151	0.7013585685288428	19.08986165143136	89.2986414716204	0	0
0.06	19.02235436975111	6.253648913896064	17.62813302739256	0	0.9399999999999999	0	43.00211823763185	-11.69620195957934	6.470460574143715	74.46286390600707	1.299622145624269	0	0	0	39.25747512436703	-21.8300051138938	0.5064480582244064	72.01206073048313	1.256847560893043	0	0	0	0	0	0	4.170310339270072	-4.170310339270072	0.7581158634762971	20.28367332557808	89.241884180822	0	0	4.170310339270072	-4.170310339270072	0.7581158634762971	20.28367332557808	89.24188418002936	0	0
0.08	19.02354353101277	6.255226924067707	17.63076270385145	0	0.9399999999999999	0	43.04026205883441	-11.69449429579116	6.46669247349589	74.61738231602706	1.302319000634064	0	0	0	39.30417147732688	-21.8336046911723	0.5343916403584001	72.15644037759191	1.259367461107959	0	0	0	0	0	0	4.418578289772387	-4.418578289772387	0.8039847027915129	21.25095909386311	89.19601534420779	0	0	4.418578289772387	-4.418578289772387	0.8039847027915129	21.25095909386311	89.19601534342402	0	0
0.1	19.02484452265697	6.254431822380988	17.6241846667165	0	0.9399999999999999	0	43.03484005609982	-11.69388979353836	6.475274340931404	74.59921326311827	1.302001890838837	0	0	0	39.31033642707281	-21.84054761944573	0.5443835822017116	72.15052625436523	1.259264240185285	0	0	0	0	0	0	4.98440161433337	-4.98440161433337	0.9065684127430215	23.22229836394956	89.09343164026812	0	0	4.98440161433337	-4.98440161433337	0.9065684127430215	23.22229836394956	89.09343163950349	0	0
0.12	19.02510744365625	6.255692063199403	17.62872561547926	0	0.9399999999999999	0	43.03940690666289	-11.71276950607904	6.467435012073676	74.60279753752624	1.302064448228551	0	0	0	39.30304172152425	-21.82795338537608	0.5379257731537378	72.13008206377728	1.25890742174662	0	0	0	0	0	0	5.434508469088308	-5.434508469088308	0.9887037809235691	24.91624482901403	89.01129627690985	0	0	5.434508469088308	-5.434508469088308	0.9887037809235691	24.91624482901403	89.01129627616051	0	0
0.14	19.01425184539521	6.262012508693329	17.62984475196004	0	0.9399999999999999	0	43.02411275910085	-11.71711598279339	6.462027121402052	74.47454576456603	1.299826032518875	0	0	0	39.28742878704658	-21.80501870810346	0.5227900291886965	72.0304182705089	1.25716796040906	0	0	0	0	0	0	5.660548672953489	-5.660548672953489	1.029983901518609	25.77780526895346	88.97001615873909	0	0	5.660548672953489	-5.660548672953489	1.029983901518609	25.77780526895346	88.97001615799742	0	0
0.16	19.03536004458889	6.261122234381762	17.60802111381073	0	0.9399999999999999	0	43.03497797789899	-11.70402204701148	6.476671819590985	74.6073906716464	1.302144613541933	0	0	0	39.27956028454706	-21.84279738612409	0.5142509719834794	72.14643483376756	1.259192831424772	0	0	0	0	0	0	6.232724616614112	-6.232724616614112	1.136351876589869	28.36224389740414	88.86364818994663	0	0	6.232724616614112	-6.232724616614112	1.136351876589869	28.36224389740414	88.86364818922409	0	0
0.18	19.0259731398767	6.25603931373017	17.61524527408498	0	0.9399999999999999	0	43.05787226218179	-11.68602145129864	6.473614183784919	74.62549551238729	1.302460602623411	0	0	0	39.31311453195596	-21.83098723674604	0.5276830525146523	72.15758036104687	1.259387357572667	0	0	0	0	0	0	6.450031191053089	-6.450031191053089	1.175475618845228	29.13484260434672	88.82452444998088	0	0	6.450031191053089	-6.450031191053089	1.175475618845228	29.13484260434672	88.82452444926562	0	0
0.2	19.03464953622312	6.266164732509789	17.61291277896966	0	0.9399999999999999	0	43.02694509746995	-11.69570867129513	6.462264077855373	74.59645435360406	1.301953738784049	0	0	0	39.29702991624421	-21.82748033903555	0.5268433315708383	72.14736301429629	1.259209031231051	0	0	0	0	0	0	6.683482984239816	-6.683482984239816	1.217326210626515	29.9468322431147	88.782673860646	0	0	6.683482984239816	-6.683482984239816	1.217326210626515	29.9468322431147	88.78267385993868	0	0
